<?xml version="1.0" encoding="utf-8"?>
<!-- Generator: Adobe Illustrator 23.0.5, SVG Export Plug-In . SVG Version: 6.00 Build 0)  -->
<svg version="1.1" id="Capa_1" xmlns="http://www.w3.org/2000/svg" xmlns:xlink="http://www.w3.org/1999/xlink" x="0px" y="0px"
	 viewBox="0 0 313.3 403.6" style="enable-background:new 0 0 313.3 403.6;" xml:space="preserve">
<style type="text/css">
	.st0{fill:#C63F3E;}
	.st1{fill:#FFFFFF;}
	.st2{fill:#504F4F;}
</style>
<g>
	<rect class="st0" width="313.3" height="403.6"/>
	<path class="st1" d="M288.5,145.4L162.6,19.6c-1.6-1.6-3.8-2.5-6-2.5s-4.3,0.8-6,2.5L24.8,145.4c-3.3,3.3-3.3,8.6,0,11.9
		l125.9,125.9c1.6,1.6,3.8,2.5,6,2.5s4.3-0.8,6-2.5l125.9-125.9C291.7,154.1,291.7,148.7,288.5,145.4z M236.9,105.8l-17.3,17.3
		l-12.9-12.9L224,92.9L236.9,105.8z M198.7,102.3L198.7,102.3l-7.9,7.9l0,0l0,0l7.9,7.9l0,0l12.9,12.9l-54.8,54.8l-12.3-12.3
		l-0.7-0.7l41.9-41.9l-7.9-7.9l-0.7-0.7L165,110.2l-7.9-7.9l-7.9,7.9l-55,55l-13-13L182.2,51.1L216.1,85L198.7,102.3z M156.6,25.5
		L174.1,43L73.1,144.1l-7.9,7.9l8.1,8.1l13,13L69.4,190l-38.6-38.6L156.6,25.5z M94.2,181l13.1,13.1L90.4,211l-13.1-13.1L94.2,181z
		 M123.1,194.1l-0.3-0.3l-7.6-7.6l-13.1-13.1l55-55l12.3,12.3l0.7,0.7l-41.9,41.9l7.9,7.9l0.7,0.7l12.3,12.3l7.9,7.9l62.7-62.7
		l13.4,13.4L132.3,252.9l-34-34L123.1,194.1z M156.6,277.2l-16.4-16.4l108.6-108.6l-7.9-7.9l-0.1,0.1L227.4,131l17.3-17.3l37.7,37.7
		L156.6,277.2z"/>
	<rect x="5.3" y="308.7" class="st1" width="302.7" height="87.3"/>
	<g>
		<g>
			<g>
				<path class="st2" d="M20.8,382.4v-13.3h1.9l4.2,11.7h0l4.2-11.7h1.8v13.3h-1.2v-11.8h0l-4.2,11.8h-1.1L22,370.6h0v11.8H20.8z"/>
				<path class="st2" d="M36,382.4l5.1-13.3h1.4l4.9,13.3h-1.3l-1.5-4.2h-5.9l-1.5,4.2H36z M39.2,377.2h5l-2.5-7L39.2,377.2z"/>
				<path class="st2" d="M50.6,382.4v-13.3h1.2v6.9l6.6-6.9h1.4l-5.1,5.3l6,8h-1.5l-5.4-7.2l-2,2.1v5.1H50.6z"/>
				<path class="st2" d="M63.8,382.4v-13.3h8.6v1.1h-7.4v4.8h6.6v1.1h-6.6v5.3h7.5v1.1H63.8z"/>
				<path class="st2" d="M87.7,376.6v-1.1h5.5v6.9h-1v-2.3c-0.4,0.8-1,1.4-1.8,1.9c-0.8,0.5-1.8,0.7-3,0.7c-1.7,0-3-0.6-4-1.8
					c-1.1-1.2-1.6-2.9-1.6-5.3c0-2,0.5-3.7,1.5-4.9c1-1.3,2.5-2,4.5-2c1.4,0,2.6,0.3,3.5,1c1,0.7,1.6,1.8,1.9,3.2h-1.2
					c-0.2-1-0.7-1.8-1.4-2.3c-0.7-0.5-1.6-0.8-2.6-0.8c-1.7,0-2.9,0.6-3.7,1.8c-0.8,1.2-1.2,2.7-1.1,4.6c0,1.5,0.4,2.8,1.2,3.8
					c0.8,1.1,2,1.6,3.4,1.7c0.7,0,1.5-0.2,2.2-0.5c0.7-0.4,1.3-1,1.7-1.8c0.4-0.8,0.6-1.8,0.6-2.8H87.7z"/>
				<path class="st2" d="M96.4,382.4l5.1-13.3h1.4l4.9,13.3h-1.3l-1.5-4.2h-5.9l-1.5,4.2H96.4z M99.6,377.2h5l-2.5-7L99.6,377.2z"/>
				<path class="st2" d="M110.8,382.4v-13.3h1.9l4.2,11.7h0l4.2-11.7h1.8v13.3h-1.2v-11.8h0l-4.2,11.8h-1.1l-4.2-11.8h0v11.8H110.8z
					"/>
				<path class="st2" d="M127.3,382.4v-13.3h8.6v1.1h-7.4v4.8h6.6v1.1h-6.6v5.3h7.5v1.1H127.3z"/>
				<path class="st2" d="M140.1,378.5c0.1,1.2,0.5,2,1.2,2.5c0.7,0.5,1.5,0.8,2.5,0.7c1.2,0,2-0.3,2.5-0.8c0.5-0.5,0.8-1.2,0.8-1.9
					c0-0.5-0.1-0.9-0.3-1.3c-0.2-0.3-0.5-0.6-0.9-0.8c-0.4-0.2-0.8-0.4-1.2-0.5c-0.5-0.1-1-0.2-1.5-0.4c-0.5-0.1-1-0.3-1.4-0.4
					c-0.5-0.2-0.9-0.4-1.3-0.6c-0.4-0.3-0.6-0.6-0.9-1.1c-0.2-0.4-0.4-1-0.4-1.6c0-1,0.4-1.8,1.1-2.5c0.7-0.7,1.8-1,3.3-1.1
					c1.4,0,2.5,0.4,3.3,1.2c0.7,0.8,1.1,1.7,1.1,2.8h-1.2c0-1-0.3-1.8-1-2.2c-0.6-0.4-1.4-0.7-2.2-0.7c-1.3,0-2.2,0.3-2.7,0.9
					s-0.7,1.3-0.6,2c0.1,0.4,0.3,0.8,0.5,1c0.3,0.3,0.6,0.5,1,0.6c0.4,0.2,0.8,0.3,1.3,0.4c0.5,0.1,0.9,0.2,1.4,0.3
					c0.5,0.1,1,0.2,1.4,0.4c0.4,0.2,0.8,0.4,1.2,0.7c0.4,0.3,0.6,0.6,0.8,1c0.2,0.4,0.3,1,0.3,1.6c0,2.5-1.6,3.8-4.7,3.9
					c-1.4,0-2.5-0.4-3.3-1.1c-0.9-0.7-1.4-1.8-1.4-3.2H140.1z"/>
				<path class="st2" d="M163.4,376.6v-1.1h5.5v6.9h-1v-2.3c-0.4,0.8-1,1.4-1.8,1.9c-0.8,0.5-1.8,0.7-3,0.7c-1.7,0-3-0.6-4-1.8
					c-1.1-1.2-1.6-2.9-1.6-5.3c0-2,0.5-3.7,1.5-4.9c1-1.3,2.5-2,4.5-2c1.4,0,2.6,0.3,3.5,1c1,0.7,1.6,1.8,1.9,3.2h-1.2
					c-0.2-1-0.7-1.8-1.4-2.3c-0.7-0.5-1.6-0.8-2.6-0.8c-1.7,0-2.9,0.6-3.7,1.8c-0.8,1.2-1.2,2.7-1.1,4.6c0,1.5,0.4,2.8,1.2,3.8
					c0.8,1.1,2,1.6,3.4,1.7c0.7,0,1.5-0.2,2.2-0.5c0.7-0.4,1.3-1,1.7-1.8c0.4-0.8,0.6-1.8,0.6-2.8H163.4z"/>
				<path class="st2" d="M174.5,376.4v6h-1.2v-13.3h5.1c2.9,0,4.4,1.1,4.4,3.5c0,1.6-0.7,2.7-2.1,3.2c0.4,0.1,0.7,0.3,0.9,0.6
					c0.2,0.3,0.4,0.6,0.5,0.9c0.1,0.3,0.2,0.7,0.2,1.1c0,0.4,0,0.7,0,1.1c0,1,0.1,1.7,0.2,2.1c0.1,0.4,0.2,0.6,0.4,0.8v0.1h-1.4
					c-0.1-0.2-0.2-0.6-0.3-1c-0.1-0.4-0.1-0.8-0.1-1.2c0-0.5,0-0.9-0.1-1.3c0-0.4-0.1-0.7-0.1-1c-0.1-0.4-0.2-0.7-0.3-0.9
					c-0.2-0.2-0.3-0.4-0.6-0.5c-0.2-0.1-0.5-0.2-0.7-0.2c-0.1,0-0.3,0-0.4,0c-0.1,0-0.3,0-0.5,0H174.5z M178.3,375.3
					c0.9,0,1.7-0.2,2.3-0.6c0.6-0.4,0.9-1.1,0.9-2c0-0.5-0.1-0.9-0.3-1.2c-0.2-0.3-0.4-0.6-0.7-0.8c-0.6-0.3-1.3-0.5-2.2-0.5h-3.8
					v5.1H178.3z"/>
				<path class="st2" d="M186.6,382.4v-13.3h8.6v1.1h-7.4v4.8h6.6v1.1h-6.6v5.3h7.5v1.1H186.6z"/>
				<path class="st2" d="M197.7,382.4l5.1-13.3h1.4l4.9,13.3h-1.3l-1.5-4.2h-5.9l-1.5,4.2H197.7z M200.9,377.2h5l-2.5-7L200.9,377.2
					z"/>
				<path class="st2" d="M209.3,369.1h9.4v1.1h-4.1v12.2h-1.2v-12.2h-4.1V369.1z"/>
				<path class="st2" d="M226.7,382.4l5.1-13.3h1.4l4.9,13.3h-1.3l-1.5-4.2h-5.9l-1.5,4.2H226.7z M229.9,377.2h5l-2.5-7L229.9,377.2
					z"/>
				<path class="st2" d="M246.7,376.6v-1.1h5.5v6.9h-1v-2.3c-0.4,0.8-1,1.4-1.8,1.9c-0.8,0.5-1.8,0.7-3,0.7c-1.7,0-3-0.6-4-1.8
					c-1.1-1.2-1.6-2.9-1.6-5.3c0-2,0.5-3.7,1.5-4.9c1-1.3,2.5-2,4.5-2c1.4,0,2.6,0.3,3.5,1c1,0.7,1.6,1.8,1.9,3.2h-1.2
					c-0.2-1-0.7-1.8-1.4-2.3c-0.7-0.5-1.6-0.8-2.6-0.8c-1.7,0-2.9,0.6-3.7,1.8c-0.8,1.2-1.2,2.7-1.1,4.6c0,1.5,0.4,2.8,1.2,3.8
					c0.8,1.1,2,1.6,3.4,1.7c0.7,0,1.5-0.2,2.2-0.5c0.7-0.4,1.3-1,1.7-1.8c0.4-0.8,0.6-1.8,0.6-2.8H246.7z"/>
				<path class="st2" d="M255.4,382.4l5.1-13.3h1.4l4.9,13.3h-1.3l-1.5-4.2h-5.9l-1.5,4.2H255.4z M258.6,377.2h5l-2.5-7L258.6,377.2
					z"/>
				<path class="st2" d="M270.3,382.4v-13.3h1.2v13.3H270.3z"/>
				<path class="st2" d="M277.2,370.8L277.2,370.8l0,11.6H276v-13.3h1.4l7.4,11.6h0v-11.6h1.2v13.3h-1.4L277.2,370.8z"/>
				<path class="st2" d="M291.2,373.3v-4.1h1.3v4.1l-0.3,5.8h-0.8L291.2,373.3z M291.2,382.4v-1.6h1.3v1.6H291.2z"/>
			</g>
		</g>
		<g>
			<g>
				<path class="st2" d="M37.3,324.9h6l-9.3,27.4h-5.4l-9.3-27.4h6.1l6,20.8L37.3,324.9z"/>
				<path class="st2" d="M54,352.3h-5.7v-27.4H54V352.3z"/>
				<path class="st2" d="M77.5,325.5c1.9,0.6,3.5,1.8,4.7,3.5c1,1.4,1.6,2.8,2,4.4c0.3,1.6,0.5,3.1,0.5,4.5c0,3.6-0.7,6.7-2.2,9.3
					c-2,3.4-5.1,5.1-9.2,5.1H61.4v-27.4h11.8C74.9,324.9,76.3,325.1,77.5,325.5z M67,329.7v17.9h5.3c2.7,0,4.6-1.3,5.7-4
					c0.6-1.5,0.9-3.2,0.9-5.2c0-2.8-0.4-4.9-1.3-6.4c-0.9-1.5-2.6-2.2-5.2-2.2H67z"/>
				<path class="st2" d="M111.2,329.8H96.7v5.8H110v4.8H96.7v7.1h15.2v4.9H91.1v-27.4h20.1V329.8z"/>
				<path class="st2" d="M139.5,349.9c-2.1,2.1-5.1,3.2-9,3.2c-3.9,0-6.9-1.1-9-3.2c-2.8-2.6-4.2-6.4-4.2-11.3c0-5,1.4-8.8,4.2-11.3
					c2.1-2.1,5.1-3.2,9-3.2c3.9,0,6.9,1.1,9,3.2c2.8,2.5,4.1,6.3,4.1,11.3C143.7,343.5,142.3,347.3,139.5,349.9z M136,345.7
					c1.3-1.7,2-4.1,2-7.1c0-3.1-0.7-5.5-2-7.1c-1.3-1.7-3.1-2.5-5.4-2.5c-2.3,0-4.1,0.8-5.4,2.5c-1.4,1.7-2,4.1-2,7.1
					c0,3.1,0.7,5.5,2,7.1c1.4,1.7,3.2,2.5,5.4,2.5C132.8,348.2,134.6,347.4,136,345.7z"/>
				<path class="st2" d="M168.6,333.5c-0.4-1.9-1.5-3.2-3.2-3.9c-0.9-0.4-2-0.6-3.1-0.6c-2.2,0-4,0.8-5.4,2.5
					c-1.4,1.7-2.1,4.2-2.1,7.5c0,3.4,0.8,5.7,2.3,7.1c1.5,1.4,3.3,2.1,5.2,2.1c1.9,0,3.5-0.6,4.7-1.7c1.2-1.1,2-2.5,2.3-4.3h-6.3
					v-4.6h11.4v14.7h-3.8l-0.6-3.4c-1.1,1.3-2.1,2.2-3,2.7c-1.5,0.9-3.4,1.4-5.6,1.4c-3.6,0-6.6-1.3-8.9-3.8
					c-2.4-2.5-3.6-6-3.6-10.4c0-4.4,1.2-8,3.7-10.7c2.4-2.7,5.7-4,9.7-4c3.5,0,6.3,0.9,8.4,2.7c2.1,1.8,3.3,4,3.6,6.6H168.6z"/>
				<path class="st2" d="M189.6,324.9h6.5l9.7,27.4h-6.2l-1.8-5.6h-10.1l-1.9,5.6h-6L189.6,324.9z M189.3,342h7l-3.5-10.8L189.3,342
					z"/>
				<path class="st2" d="M229.6,324.9h8.2v27.4h-5.3v-18.5c0-0.5,0-1.3,0-2.2c0-1,0-1.7,0-2.2l-5.2,23h-5.6l-5.2-23
					c0,0.5,0,1.3,0,2.2c0,1,0,1.7,0,2.2v18.5h-5.3v-27.4h8.3l5,21.6L229.6,324.9z"/>
				<path class="st2" d="M265.4,329.8h-14.5v5.8h13.3v4.8h-13.3v7.1h15.2v4.9h-20.8v-27.4h20.1V329.8z"/>
				<path class="st2" d="M276.8,343.9c0.2,1.3,0.5,2.2,1,2.8c0.9,1.1,2.6,1.7,4.9,1.7c1.4,0,2.5-0.1,3.4-0.4
					c1.6-0.6,2.5-1.6,2.5-3.2c0-0.9-0.4-1.6-1.2-2.1c-0.8-0.5-2.1-0.9-3.8-1.3l-3-0.7c-2.9-0.6-4.9-1.3-6-2.1
					c-1.8-1.3-2.8-3.2-2.8-5.9c0-2.5,0.9-4.5,2.7-6.1c1.8-1.6,4.5-2.4,8-2.4c2.9,0,5.4,0.8,7.5,2.3c2.1,1.5,3.1,3.8,3.2,6.7h-5.5
					c-0.1-1.6-0.8-2.8-2.2-3.5c-0.9-0.5-2.1-0.7-3.4-0.7c-1.5,0-2.7,0.3-3.6,0.9c-0.9,0.6-1.4,1.4-1.4,2.5c0,1,0.4,1.7,1.3,2.2
					c0.6,0.3,1.8,0.7,3.6,1.1l4.8,1.1c2.1,0.5,3.7,1.2,4.7,2c1.6,1.3,2.5,3.2,2.5,5.6c0,2.5-1,4.6-2.9,6.2c-1.9,1.7-4.7,2.5-8.2,2.5
					c-3.6,0-6.4-0.8-8.5-2.4c-2.1-1.6-3.1-3.9-3.1-6.7H276.8z"/>
			</g>
		</g>
	</g>
</g>
</svg>
